<svg xmlns="http://www.w3.org/2000/svg" viewBox="0 0 800 800" preserveAspectRatio="xMidYMid slice">
<defs>
<linearGradient id="pitchG" x1="0" y1="0" x2="1" y2="1">
<stop offset="0%" stop-color="#0f5132"/>
<stop offset="100%" stop-color="#012d1d"/>
</linearGradient>
</defs>
<rect width="800" height="800" fill="url(#pitchG)"/>
<g fill="#0a3f28" opacity="0.7">
<rect x="0" y="0" width="80" height="800"/>
<rect x="160" y="0" width="80" height="800"/>
<rect x="320" y="0" width="80" height="800"/>
<rect x="480" y="0" width="80" height="800"/>
<rect x="640" y="0" width="80" height="800"/>
</g>
<g stroke="#f8f9ff" stroke-opacity="0.65" stroke-width="4" fill="none">
<rect x="40" y="40" width="720" height="720"/>
<line x1="40" y1="400" x2="760" y2="400"/>
<circle cx="400" cy="400" r="120"/>
<circle cx="400" cy="400" r="5" fill="#f8f9ff" fill-opacity="0.65" stroke="none"/>
<rect x="220" y="40" width="360" height="130"/>
<rect x="300" y="40" width="200" height="55"/>
<path d="M330 170 A70 70 0 0 0 470 170" />
<rect x="220" y="630" width="360" height="130"/>
<rect x="300" y="705" width="200" height="55"/>
<path d="M330 630 A70 70 0 0 1 470 630" />
<circle cx="400" cy="40" r="4" fill="#f8f9ff" fill-opacity="0.65" stroke="none"/>
<circle cx="400" cy="760" r="4" fill="#f8f9ff" fill-opacity="0.65" stroke="none"/>
</g>
<circle cx="400" cy="400" r="360" fill="none" stroke="#C9A24B" stroke-opacity="0.25" stroke-width="2" stroke-dasharray="2 10"/>
</svg>
